<svg xmlns="http://www.w3.org/2000/svg" width="18" height="18" viewBox="0 0 18 18"><defs><style>.a{fill:none;}.b{fill:#77f697;}</style></defs><g transform="translate(-86.146 -312.607)"><rect class="a" width="18" height="18" transform="translate(86.146 312.607)"/><path class="b" d="M6.5,13A6.5,6.5,0,1,1,13,6.5,6.506,6.506,0,0,1,6.5,13ZM3.343,5.816A.594.594,0,0,0,2.906,6a.587.587,0,0,0-.171.425.6.6,0,0,0,.183.419L4.851,8.682a1.563,1.563,0,0,0,1.076.426l.051,0,.014,0h.035a1.56,1.56,0,0,0,1.106-.57.05.05,0,0,0,.013-.014c.006,0,.007-.006.007-.007l3-4.144a.6.6,0,0,0-.492-.948.625.625,0,0,0-.5.25L6.184,7.792a.348.348,0,0,1-.237.116h-.03a.338.338,0,0,1-.23-.09L3.759,5.979A.6.6,0,0,0,3.343,5.816Z" transform="translate(89.146 315.607)"/></g></svg>