<svg xmlns="http://www.w3.org/2000/svg" version="1.1" xmlns:xlink="http://www.w3.org/1999/xlink" xmlns:svgjs="http://svgjs.com/svgjs" viewBox="0 0 48 48" width="48" height="48"><title>Exported from Streamline App (https://app.streamlineicons.com)</title><g transform="matrix(2,0,0,2,0,0)"><path d="M 17.25,11.25c3.314,0,6,2.686,6,6s-2.686,6-6,6s-6-2.686-6-6S13.936,11.25,17.25,11.25z " stroke="#000000" fill="none" stroke-width="1.5" stroke-linecap="round" stroke-linejoin="round"></path><path d="M 19.5,15L15,19.5 " stroke="#000000" fill="none" stroke-width="1.5" stroke-linecap="round" stroke-linejoin="round"></path><path d="M 15,15l4.5,4.5 " stroke="#000000" fill="none" stroke-width="1.5" stroke-linecap="round" stroke-linejoin="round"></path><path d="M 20.25,8.25v-6c0-0.828-0.672-1.5-1.5-1.5H2.25c-0.828,0-1.5,0.672-1.5,1.5v12c0,0.828,0.672,1.5,1.5,1.5h6 " stroke="#000000" fill="none" stroke-width="1.5" stroke-linecap="round" stroke-linejoin="round"></path><path d="M 0.75,5.25h19.5 " stroke="#000000" fill="none" stroke-width="1.5" stroke-linecap="round" stroke-linejoin="round"></path><path d="M 3.75,9h6 " stroke="#000000" fill="none" stroke-width="1.5" stroke-linecap="round" stroke-linejoin="round"></path><path d="M 3.75,12h3" stroke="#000000" fill="none" stroke-width="1.5" stroke-linecap="round" stroke-linejoin="round"></path></g></svg>