<svg xmlns="http://www.w3.org/2000/svg" version="1.1" xmlns:xlink="http://www.w3.org/1999/xlink" xmlns:svgjs="http://svgjs.com/svgjs" viewBox="0 0 48 48" width="48" height="48"><title>Exported from Streamline App (https://app.streamlineicons.com)</title><g transform="matrix(2,0,0,2,0,0)"><path d="M 8.25,18v3.1c0.061,0.785,0.713,1.393,1.5,1.4h12c0.857-0.031,1.528-0.75,1.5-1.607V3.111 c0.031-0.859-0.64-1.58-1.499-1.611c0,0-0.001,0-0.001,0h-12C8.857,1.56,8.182,2.332,8.242,3.225 C8.244,3.253,8.247,3.28,8.25,3.308V6 " stroke="#000000" fill="none" stroke-width="1.5" stroke-linecap="round" stroke-linejoin="round"></path><path d="M 6.75,12.004h12v3 " stroke="#000000" fill="none" stroke-width="1.5" stroke-linecap="round" stroke-linejoin="round"></path><path d="M 15.75,15.004v-3 " stroke="#000000" fill="none" stroke-width="1.5" stroke-linecap="round" stroke-linejoin="round"></path><path d="M 3.75,9.004c1.657,0,3,1.343,3,3s-1.343,3-3,3 s-3-1.343-3-3S2.093,9.004,3.75,9.004z" stroke="#000000" fill="none" stroke-width="1.5" stroke-linecap="round" stroke-linejoin="round"></path></g></svg>