<svg xmlns="http://www.w3.org/2000/svg" width="24" height="24" viewBox="0 0 24 24"><defs><style>.a{fill:none;}.b{fill:#cc1717;}</style></defs><g transform="translate(-86.212 -312.672)"><rect class="a" width="24" height="24" transform="translate(86.212 312.672)"/><path class="b" d="M18.794,8.6a1.107,1.107,0,0,0-1.545.256l-5.458,7.624a.633.633,0,0,1-.91.047L7.348,13.133a1.107,1.107,0,0,0-1.534,1.6l3.537,3.4a2.856,2.856,0,0,0,1.964.785q.094,0,.188-.006a2.854,2.854,0,0,0,2.03-1.058c.013-.016.025-.032.037-.049l5.48-7.655A1.107,1.107,0,0,0,18.794,8.6Z" transform="translate(85.738 311.28)"/></g></svg>