<svg xmlns="http://www.w3.org/2000/svg" width="18.693" height="18.694" viewBox="0 0 18.693 18.694"><defs><style>.a{fill:none;}.b{fill:#fafafa;}</style></defs><g transform="translate(-86.146 -312.607)"><rect class="a" width="18" height="18" transform="translate(86.146 312.607)"/><path class="b" d="M6.5,13A6.5,6.5,0,1,1,13,6.5,6.509,6.509,0,0,1,6.5,13ZM3.871,5.866a.572.572,0,1,0,0,1.144H5.815a.114.114,0,0,1,.114.114V9.068a.572.572,0,1,0,1.144,0V7.124a.114.114,0,0,1,.114-.114H9.132a.572.572,0,0,0,0-1.144H7.187a.114.114,0,0,1-.114-.114V3.807a.572.572,0,0,0-1.144,0V5.752a.114.114,0,0,1-.114.114Z" transform="translate(86.453 322.108) rotate(-45)"/></g></svg>