<svg xmlns="http://www.w3.org/2000/svg" width="24" height="24" viewBox="0 0 24 24">
    <g fill="none" fill-rule="evenodd" stroke="#44464A" stroke-linecap="round" stroke-linejoin="round" stroke-width="1.5">
        <path d="M4.7 8.78a6.852 6.852 0 0 0 7.642 1.536M8.249 6.75a4.125 4.125 0 1 1 0 8.25 4.125 4.125 0 0 1 0-8.25z"/>
        <path d="M11.999.75c6.213 0 11.25 5.037 11.25 11.25s-5.037 11.25-11.25 11.25S.749 18.213.749 12 5.786.75 11.999.75zM14.987 22.848A6.749 6.749 0 0 0 3.1 18.884"/>
        <path d="M17.624 10.5a2.625 2.625 0 1 1 0 5.25 2.625 2.625 0 0 1 0-5.25zM21.274 18.368a4.5 4.5 0 0 0-7.719.709"/>
    </g>
</svg>
