<svg xmlns="http://www.w3.org/2000/svg" width="24" height="24" viewBox="0 0 24 24"><defs><style>.a{fill:none;}</style></defs><g transform="translate(-1345.705 -631.903)"><rect class="a" width="24" height="24" transform="translate(1345.705 631.903)"/><g transform="translate(1350 634)"><path d="M126.66,1.2h3.31v.557h1.2V1.118A1.118,1.118,0,0,0,130.049,0h-3.467a1.119,1.119,0,0,0-1.117,1.118v.635h1.2Zm0,0" transform="translate(-120.611 0)"/><path d="M52.24,167.75H41.017a.526.526,0,0,0-.525.569l.938,11.6a1.246,1.246,0,0,0,1.242,1.146h7.913a1.246,1.246,0,0,0,1.242-1.147l.938-11.6a.526.526,0,0,0-.525-.569Zm-8.505,12.08H43.7a.6.6,0,0,1-.6-.561l-.588-9.524a.6.6,0,0,1,1.193-.074l.588,9.524A.6.6,0,0,1,43.734,179.83Zm3.5-.6a.6.6,0,0,1-1.2,0v-9.525a.6.6,0,1,1,1.2,0Zm3.511-9.489-.561,9.524a.6.6,0,0,1-.6.563h-.036a.6.6,0,0,1-.562-.632l.561-9.525a.6.6,0,0,1,1.193.07Zm0,0" transform="translate(-38.924 -161.261)"/><path d="M15.383,77.908l-.393-1.177a.76.76,0,0,0-.721-.52H1.14a.76.76,0,0,0-.721.52L.026,77.908a.494.494,0,0,0,.468.649H14.915a.487.487,0,0,0,.261-.075.492.492,0,0,0,.207-.574Zm0,0" transform="translate(0 -73.263)"/></g></g></svg>