<svg xmlns="http://www.w3.org/2000/svg" width="14.485" height="12.874" viewBox="0 0 14.485 12.874"><defs><style>.a{fill:#c3c8ce;}</style></defs><g transform="translate(0 -33.355)"><path class="a" d="M13.167,35.915H11.631V34.232a.878.878,0,0,0-.877-.878H3.731a.878.878,0,0,0-.878.878v1.682H1.317A1.317,1.317,0,0,0,0,37.232v7.68a1.317,1.317,0,0,0,1.317,1.317H13.168a1.317,1.317,0,0,0,1.317-1.317v-7.68A1.318,1.318,0,0,0,13.167,35.915Zm-8.559-.8H9.875v.8H4.608Zm5.025,7.207H8.177v1.457H6.307V42.317H4.85V40.448H6.307V38.992h1.87v1.456H9.633S9.656,42.317,9.633,42.317Z"/></g></svg>