<svg xmlns="http://www.w3.org/2000/svg" width="21.134" height="20.575" viewBox="0 0 21.134 20.575"><defs><style>.a{stroke:#000;}</style></defs><g transform="translate(0.5 -0.269)"><path class="a" d="M19.6,30.372a.529.529,0,0,0-.529.529v4.7a1.589,1.589,0,0,1-1.587,1.587H2.645A1.589,1.589,0,0,1,1.058,35.6V21.813a1.589,1.589,0,0,1,1.587-1.587h4.7a.529.529,0,1,0,0-1.058h-4.7A2.648,2.648,0,0,0,0,21.813V35.6a2.648,2.648,0,0,0,2.645,2.645H17.489A2.648,2.648,0,0,0,20.134,35.6V30.9A.529.529,0,0,0,19.6,30.372Zm0,0" transform="translate(0 -17.9)"/><path d="M156.367,40.052l7.724-7.724,2.491,2.491-7.724,7.724Zm0,0" transform="translate(-148.095 -30.363)"/><path d="M132.543,199.972l2.753-.763-1.99-1.99Zm0,0" transform="translate(-125.531 -186.531)"/><path d="M318.958.655a1.324,1.324,0,0,0-1.87,0l-.561.561,2.491,2.491.561-.561a1.324,1.324,0,0,0,0-1.87Zm0,0" transform="translate(-299.782 0)"/></g></svg>