<svg xmlns="http://www.w3.org/2000/svg" width="24" height="24" viewBox="0 0 24 24">
    <path fill="none" fill-rule="evenodd" stroke="#44464A" stroke-linecap="round" stroke-linejoin="round" stroke-width="1.5" d="M14.249 20.25h-1a.51.51 0 0 1-.5-.519V3.518a.51.51 0 0 1 .5-.518h1m5.25 17.25a4.047 4.047 0 0 1 3.75 3h-7.5a4.047 4.047 0 0 1 3.75-3zm0-5.25a2.25 2.25 0 1 1 0 4.5 2.25 2.25 0 0 1 0-4.5zM5.25 13.501A4.5 4.5 0 0 1 9.749 18h-9a4.501 4.501 0 0 1 4.501-4.499zM5.249 6a3 3 0 1 1 0 6 3 3 0 0 1 0-6zM19.5 6a4.048 4.048 0 0 1 3.749 3H15.75a4.047 4.047 0 0 1 3.75-3zM19.499.75a2.25 2.25 0 1 1 0 4.5 2.25 2.25 0 0 1 0-4.5z"/>
</svg>
