<svg xmlns="http://www.w3.org/2000/svg" width="18.109" height="18.109" viewBox="0 0 18.109 18.109"><defs><style>.a{fill:#f14f4e;}</style></defs><path class="a" d="M107.454,249.563a1.488,1.488,0,0,1-.393,1.4l-1.18,1.18a1.5,1.5,0,0,1-2.1,0l-.42-.42a1.495,1.495,0,0,1,0-2.1l1.18-1.18a1.508,1.508,0,0,1,1.4-.392l.461-.461a2.083,2.083,0,0,0-2.275.441l-1.18,1.18a2.074,2.074,0,0,0,0,2.929l.42.42a2.079,2.079,0,0,0,2.929,0l1.18-1.18a2.08,2.08,0,0,0,.441-2.275Zm0,0" transform="translate(-98.719 -238.674)"/><path class="a" d="M195.187,191.086a.466.466,0,0,0-.33.137l-.484.483-1.276,1.277-.776.776-.638.638-.484.483a.467.467,0,0,0,.661.661l1.9-1.9,1.276-1.276.484-.483a.468.468,0,0,0,0-.661A.462.462,0,0,0,195.187,191.086Zm0,0" transform="translate(-184.304 -184.327)"/><path class="a" d="M138.354,284.07a1.07,1.07,0,0,1-.757-1.828l.149-.149a.869.869,0,0,0-.372.216l-1.18,1.18a.891.891,0,0,0,0,1.251l.42.42a.914.914,0,0,0,1.251,0l1.18-1.18a.873.873,0,0,0,.22-.376l-.153.153a1.068,1.068,0,0,1-.757.313Zm0,0" transform="translate(-131.129 -272.116)"/><path class="a" d="M9.055,0a9.055,9.055,0,1,0,9.055,9.055A9.065,9.065,0,0,0,9.055,0Zm5.256,8-1.18,1.18a2.664,2.664,0,0,1-3.149.461l-.334.335a2.686,2.686,0,0,1-.466,3.153L8,14.311a2.682,2.682,0,0,1-3.783,0l-.42-.419a2.682,2.682,0,0,1,0-3.783l1.18-1.18a2.685,2.685,0,0,1,3.153-.466l.33-.33a2.686,2.686,0,0,1,.466-3.153l1.18-1.18a2.682,2.682,0,0,1,3.783,0l.419.419a2.682,2.682,0,0,1,0,3.783Zm0,0"/><path class="a" d="M283.608,139.506a.871.871,0,0,0,.372-.216l1.18-1.18a.886.886,0,0,0,0-1.251l-.42-.42a.915.915,0,0,0-1.251,0l-1.18,1.18a.868.868,0,0,0-.216.372l.149-.149a1.071,1.071,0,0,1,1.515,1.515Zm0,0" transform="translate(-272.116 -131.374)"/><path class="a" d="M252.123,103a2.079,2.079,0,0,0-2.929,0l-1.18,1.18a2.08,2.08,0,0,0-.441,2.275l.461-.461a1.5,1.5,0,0,1-.041-.349,1.478,1.478,0,0,1,.433-1.053l1.18-1.18a1.5,1.5,0,0,1,2.1,0l.42.42a1.489,1.489,0,0,1,0,2.1l-1.18,1.18a1.5,1.5,0,0,1-1.4.392l-.461.461a2.081,2.081,0,0,0,2.275-.441l1.18-1.18a2.074,2.074,0,0,0,0-2.929Zm0,0" transform="translate(-238.658 -98.777)"/></svg>