<svg xmlns="http://www.w3.org/2000/svg" width="17" height="17" viewBox="0 0 17 17">
    <path fill="#0077B5" fill-rule="nonzero" d="M.405 5.667h3.238c.223 0 .405.181.405.404v10.524a.405.405 0 0 1-.405.405H.405A.405.405 0 0 1 0 16.595V6.071c0-.223.181-.404.405-.404zM2.008 0c1.109 0 2.007.906 2.007 2.024a2.015 2.015 0 0 1-2.007 2.024A2.015 2.015 0 0 1 0 2.024C0 .906.899 0 2.008 0zm11.35 17h2.428a.405.405 0 0 0 .404-.405v-6.8c0-3.052-1.724-4.533-4.136-4.533A3.41 3.41 0 0 0 9.488 6.29a.332.332 0 0 1-.583-.219.405.405 0 0 0-.405-.404H6.071a.405.405 0 0 0-.404.404v10.524c0 .224.181.405.404.405H8.5a.405.405 0 0 0 .405-.405v-6.071a2.024 2.024 0 1 1 4.047 0v6.071c0 .224.182.405.405.405z"/>
</svg>
