<svg xmlns="http://www.w3.org/2000/svg" width="18.651" height="13.114" viewBox="0 0 18.651 13.114"><defs><style>.a{fill:#c3c8ce;}</style></defs><g transform="translate(0 -76)"><g transform="translate(0 81.829)"><g transform="translate(0 0)"><path class="a" d="M17.923,236H.729a.729.729,0,1,0,0,1.457H17.923a.729.729,0,1,0,0-1.457Z" transform="translate(0 -236)"/></g></g><g transform="translate(0 76)"><g transform="translate(0 0)"><path class="a" d="M17.923,76H.729a.729.729,0,1,0,0,1.457H17.923a.729.729,0,1,0,0-1.457Z" transform="translate(0 -76)"/></g></g><g transform="translate(0 87.657)"><path class="a" d="M17.923,396H.729a.729.729,0,1,0,0,1.457H17.923a.729.729,0,1,0,0-1.457Z" transform="translate(0 -396)"/></g></g></svg>