<svg xmlns="http://www.w3.org/2000/svg" version="1.1" xmlns:xlink="http://www.w3.org/1999/xlink" xmlns:svgjs="http://svgjs.com/svgjs" viewBox="0 0 140 140" width="140" height="140"><g transform="matrix(5.833333333333333,0,0,5.833333333333333,0,0)"><path d="M15.75,15.75V13.5a.75.75,0,0,0-.75-.75H1.5a.75.75,0,0,0-.75.75v2.25a1.5,1.5,0,0,1,0,3V21a.75.75,0,0,0,.75.75H15a.75.75,0,0,0,.75-.75V18.75a1.5,1.5,0,0,1,0-3Z" fill="none" stroke="#000000" stroke-linecap="round" stroke-linejoin="round" stroke-width="1.5"></path><path d="M5.250 15.750 5.250 18.750" fill="none" stroke="#000000" stroke-linecap="round" stroke-linejoin="round" stroke-width="1.5"></path><path d="M8.25,9.75V8.25a1.5,1.5,0,0,0,0-3V3A.75.75,0,0,1,9,2.25H22.5a.75.75,0,0,1,.75.75V5.25a1.5,1.5,0,0,0,0,3V10.5a.75.75,0,0,1-.75.75H18.75" fill="none" stroke="#000000" stroke-linecap="round" stroke-linejoin="round" stroke-width="1.5"></path><path d="M12.750 5.250 12.750 8.250" fill="none" stroke="#000000" stroke-linecap="round" stroke-linejoin="round" stroke-width="1.5"></path><path d="M23.25,15a3,3,0,0,1-3,3h-1.5" fill="none" stroke="#000000" stroke-linecap="round" stroke-linejoin="round" stroke-width="1.5"></path><path d="M.75,9a3,3,0,0,1,3-3h1.5" fill="none" stroke="#000000" stroke-linecap="round" stroke-linejoin="round" stroke-width="1.5"></path><path d="M3.75 4.5 L3.75 4.5 L5.25 6" fill="none" stroke="#000000" stroke-linecap="round" stroke-linejoin="round" stroke-width="1.5"></path><path d="M20.25 16.5 L20.25 16.5 L18.75 18" fill="none" stroke="#000000" stroke-linecap="round" stroke-linejoin="round" stroke-width="1.5"></path></g></svg>