<svg xmlns="http://www.w3.org/2000/svg" width="8.303" height="11.809" viewBox="0 0 8.303 11.809"><defs><style>.a{fill:#c4c8ce;}</style></defs><g transform="translate(-76)"><g transform="translate(76)"><path class="a" d="M80.151,0A4.152,4.152,0,0,0,76.62,6.334l3.3,5.311a.346.346,0,0,0,.294.164h0a.346.346,0,0,0,.294-.168l3.211-5.362A4.152,4.152,0,0,0,80.151,0Zm2.972,5.923L80.2,10.8l-3-4.828a3.462,3.462,0,1,1,5.916-.047Z" transform="translate(-76)"/></g><g transform="translate(78.076 2.076)"><path class="a" d="M168.076,90a2.076,2.076,0,1,0,2.076,2.076A2.078,2.078,0,0,0,168.076,90Zm0,3.464a1.388,1.388,0,1,1,1.386-1.388A1.389,1.389,0,0,1,168.076,93.464Z" transform="translate(-166 -90)"/></g></g></svg>