<svg xmlns="http://www.w3.org/2000/svg" width="18" height="18" viewBox="0 0 18 18"><defs><style>.a{fill:none;}.b{fill:#fff;}</style></defs><rect class="a" width="18" height="18"/><path class="b" d="M11.5,5.186H7.666a.225.225,0,0,1-.225-.225V1.127a1.127,1.127,0,1,0-2.255,0V4.96a.225.225,0,0,1-.225.225H1.127a1.127,1.127,0,0,0,0,2.255H4.96a.225.225,0,0,1,.225.225V11.5a1.127,1.127,0,0,0,2.255,0V7.666a.225.225,0,0,1,.225-.225H11.5a1.127,1.127,0,0,0,0-2.255Zm0,0" transform="translate(2.921 2.857)"/></svg>