<svg xmlns="http://www.w3.org/2000/svg" version="1.1" xmlns:xlink="http://www.w3.org/1999/xlink" xmlns:svgjs="http://svgjs.com/svgjs" viewBox="0 0 140 140" width="140" height="140"><g transform="matrix(5.833333333333333,0,0,5.833333333333333,0,0)"><path d="M17.25,20.25a.375.375,0,1,0,.375.375.374.374,0,0,0-.375-.375" fill="none" stroke="#bc2f25" stroke-linecap="round" stroke-linejoin="round" stroke-width="1.5"></path><path d="M17.25 18L17.25 15" fill="none" stroke="#bc2f25" stroke-linecap="round" stroke-linejoin="round" stroke-width="1.5"></path><path d="M23.062,20.682a1.774,1.774,0,0,1-1.587,2.568H13.024a1.774,1.774,0,0,1-1.587-2.568l4.226-8.452a1.774,1.774,0,0,1,3.173,0Z" fill="none" stroke="#bc2f25" stroke-linecap="round" stroke-linejoin="round" stroke-width="1.5"></path><path d="M3.375 4.875 A4.125 4.125 0 1 0 11.625 4.875 A4.125 4.125 0 1 0 3.375 4.875 Z" fill="none" stroke="#bc2f25" stroke-linecap="round" stroke-linejoin="round" stroke-width="1.5"></path><path d="M12.21,12.425A6.743,6.743,0,0,0,.75,17.25" fill="none" stroke="#bc2f25" stroke-linecap="round" stroke-linejoin="round" stroke-width="1.5"></path></g></svg>