<svg xmlns="http://www.w3.org/2000/svg" width="18.109" height="18.109" viewBox="0 0 18.109 18.109"><defs><style>.a{fill:#55acee;}.b{fill:#f1f2f2;}</style></defs><circle class="a" cx="9.055" cy="9.055" r="9.055" transform="translate(0 0)"/><g transform="translate(4.052 5.492)"><path class="b" d="M35.652,35.043a4.318,4.318,0,0,1-1.243.34,2.17,2.17,0,0,0,.952-1.2,4.333,4.333,0,0,1-1.374.525A2.166,2.166,0,0,0,30.3,36.686a6.144,6.144,0,0,1-4.461-2.262,2.167,2.167,0,0,0,.67,2.89,2.149,2.149,0,0,1-.98-.271c0,.009,0,.018,0,.027a2.166,2.166,0,0,0,1.736,2.122,2.173,2.173,0,0,1-.977.037,2.167,2.167,0,0,0,2.022,1.5,4.369,4.369,0,0,1-3.2.9,6.155,6.155,0,0,0,9.475-5.186c0-.094,0-.187-.006-.28a4.389,4.389,0,0,0,1.08-1.12Z" transform="translate(-25.103 -34.028)"/></g></svg>