<svg xmlns="http://www.w3.org/2000/svg" width="17" height="14" viewBox="0 0 17 14">
    <path fill="#FFF" fill-rule="nonzero" d="M16.867 2.854a.368.368 0 0 0-.147-.64l-.58-.147a.368.368 0 0 1-.244-.515l.324-.655a.369.369 0 0 0-.426-.514l-1.472.411A.369.369 0 0 1 14 .736a3.678 3.678 0 0 0-5.885 2.942v.265c0 .093-.07.173-.162.184-2.067.243-4.046-.81-6.18-3.266a.374.374 0 0 0-.374-.11.368.368 0 0 0-.214.308 5.572 5.572 0 0 0 .339 3.62.184.184 0 0 1-.192.264l-.823-.162a.368.368 0 0 0-.42.434 3.789 3.789 0 0 0 1.744 2.781.184.184 0 0 1 0 .331l-.39.155a.368.368 0 0 0-.192.507 3.207 3.207 0 0 0 2.354 1.824.184.184 0 0 1 0 .346c-1 .414-2.073.622-3.155.61a.375.375 0 0 0-.147.736 14.759 14.759 0 0 0 5.987 1.42 9.253 9.253 0 0 0 5.15-1.471 9.195 9.195 0 0 0 4.09-7.673v-.64c0-.108.049-.21.132-.279l1.206-1.008z"/>
</svg>
