<svg xmlns="http://www.w3.org/2000/svg" width="24" height="24" viewBox="0 0 24 24">
    <path fill="#44464A" fill-rule="nonzero" d="M6.794 8.995c.075.376.247.725.497 1.016a4.501 4.501 0 0 0 1.43 2.831v1.905l-.957.353c-3.442 1.265-5.928 2.177-6.705 3.73A10.654 10.654 0 0 0 0 23.143c0 .473.384.856.857.856h22.286a.857.857 0 0 0 .857-.856 10.644 10.644 0 0 0-1.06-4.308c-.778-1.552-3.265-2.464-6.707-3.73l-.954-.352V12.85a4.501 4.501 0 0 0 1.43-2.83c.25-.292.422-.64.497-1.017a2.618 2.618 0 0 0-.343-2.13v-.017a8.3 8.3 0 0 0 .808-4.248C17.307.791 14.962.091 12.888.04a5.398 5.398 0 0 0-4.366 1.438 2.17 2.17 0 0 0-1.39.842c-.943 1.27-.321 3.365.029 4.516-.434.63-.57 1.421-.367 2.159z"/>
</svg>
