<svg xmlns="http://www.w3.org/2000/svg" width="121" height="18" viewBox="0 0 121 18">
    <path fill="#FFF" fill-rule="nonzero" d="M1.55 18H0V1.374h1.97l2.813 10.692L7.62 1.374h1.97V18h-1.55V5.41l-2.286 8.982H3.837L1.55 5.41V18zm14.637 0H14.4v-5.079L11.168 1.374h1.813l2.313 9.757 2.18-9.757h1.814l-3.1 11.547V18zM29.59 3.807h-5.23v4.677h4.389v2.647H24.36V18h-3.758V1h8.987v2.807zM31.166 1h3.731v17h-3.731V1zM47.22 6.506h-3.757V4.288c0-.446-.237-.669-.71-.669h-1.077c-.473 0-.71.223-.71.669v10.424c0 .25.053.423.158.521.105.098.289.148.552.148h1.077c.263 0 .447-.05.552-.148.105-.098.158-.271.158-.52v-3.315H42.15v-2.54h5.071v6.202c0 1.96-1.103 2.94-3.31 2.94h-3.39c-2.208 0-3.312-.98-3.312-2.94V3.94C37.21 1.98 38.313 1 40.52 1h3.39c2.208 0 3.311.98 3.311 2.94v2.566zM56.392 1h3.705v17h-3.705v-7.003H53.03V18h-3.705V1h3.705v7.19h3.363V1zm14.9 0v2.807h-3.075V18H64.46V3.807H61.41V1h9.88zm7.883 6.469V4.288c0-.446-.236-.669-.71-.669h-2.154v4.518h2.155c.473 0 .71-.223.71-.668zm0 7.243v-3.314c0-.232-.052-.397-.158-.495-.105-.098-.289-.147-.551-.147H76.31v4.625h2.155c.473 0 .71-.223.71-.669zM72.605 1h6.938c2.225 0 3.337.98 3.337 2.94v2.994c0 1.319-.394 2.147-1.182 2.486.788.303 1.182 1.069 1.182 2.299v3.314c0 1.978-1.112 2.967-3.337 2.967h-6.937V1zm15.741 0h3.521c2.208 0 3.311.98 3.311 2.94v11.093c0 1.978-1.103 2.967-3.31 2.967h-3.522c-2.225 0-3.337-.989-3.337-2.967V3.94c0-1.96 1.112-2.94 3.337-2.94zm3.075 13.525V4.475c0-.446-.228-.668-.684-.668h-1.26c-.474 0-.71.222-.71.668v10.05c0 .446.236.668.71.668h1.26c.456 0 .684-.222.684-.668zM100.67 1h3.52c2.208 0 3.312.98 3.312 2.94v11.093c0 1.978-1.104 2.967-3.311 2.967h-3.522c-2.224 0-3.337-.989-3.337-2.967V3.94c0-1.96 1.113-2.94 3.337-2.94zm3.074 13.525V4.475c0-.446-.228-.668-.683-.668H101.8c-.473 0-.71.222-.71.668v10.05c0 .446.237.668.71.668h1.262c.455 0 .683-.222.683-.668zM120.852 1l-3.364 8.393L120.852 18h-4.047l-3.232-8.607L116.805 1h4.047zm-11.09 17V1h3.732v17h-3.731z"/>
</svg>
