<svg xmlns="http://www.w3.org/2000/svg" width="64" height="64" viewBox="0 0 64 64">
    <path fill="#44464A" fill-rule="nonzero" d="M18.117 23.986a5.945 5.945 0 0 0 1.325 2.711 12.004 12.004 0 0 0 3.813 7.55v5.08l-2.551.94c-9.18 3.372-15.808 5.805-17.879 9.945A28.412 28.412 0 0 0 0 61.718 2.285 2.285 0 0 0 2.286 64h59.428A2.285 2.285 0 0 0 64 61.718a28.384 28.384 0 0 0-2.825-11.488c-2.076-4.14-8.709-6.572-17.888-9.945l-2.542-.94v-5.08a12.004 12.004 0 0 0 3.813-7.55 5.945 5.945 0 0 0 1.325-2.71 6.98 6.98 0 0 0-.914-5.679v-.045a22.132 22.132 0 0 0 2.153-11.328C46.153 2.11 39.9.243 34.368.106c-4.26-.52-8.53.886-11.643 3.834a5.787 5.787 0 0 0-3.708 2.246c-2.514 3.386-.855 8.973.078 12.045a6.927 6.927 0 0 0-.978 5.755z"/>
</svg>
